<svg width="45" height="45" viewBox="0 0 45 45" fill="none" xmlns="http://www.w3.org/2000/svg">
<path d="M20 18C20 15.5147 22.0147 13.5 24.5 13.5H33.5C33.7761 13.5 34 13.7239 34 14V20C34 22.4853 31.9853 24.5 29.5 24.5H24.5C22.0147 24.5 20 22.4853 20 20V18Z" stroke="#A3A3A3"/>
<path d="M17.5556 19.5H16.6667C13.5371 19.5 11 15.9816 11 12.875V4.4375C11 3.91973 11.4228 3.5 11.9444 3.5H22.3333C25.4629 3.5 28 5.0184 28 8.125V11" stroke="#A3A3A3"/>
<path d="M9.38574 32.7041V35.3066H11.0361V36.3096H9.38574V38.7725H8.17969V32.7041H9.38574ZM6.00879 33.4277V34.418H2.14941V37.4395C4.36475 37.4331 5.61523 37.3633 7.03711 37.0586L7.17676 38.0361C5.64062 38.3535 4.29492 38.4297 1.85742 38.4297H0.956055V33.4277H6.00879ZM3.29199 39.3691V40.6641H8.17969V39.3691H9.38574V43.9014H2.09863V39.3691H3.29199ZM3.29199 42.9238H8.17969V41.6162H3.29199V42.9238ZM15.6572 34.7988C15.6572 36.2461 16.6602 37.5664 18.3867 38.1123L17.8154 39.0518C16.5205 38.6392 15.5747 37.7822 15.0732 36.7031C14.5781 37.9473 13.5815 38.9312 12.2168 39.4072L11.5947 38.4424C13.3721 37.8584 14.4385 36.3857 14.4512 34.8115V34.4941H11.9502V33.5166H18.1074V34.4941H15.6572V34.7988ZM20.6211 32.7041V35.5225H22.2715V36.5127H20.6211V39.5342H19.415V32.7041H20.6211ZM16.9521 39.8135C19.3008 39.8135 20.7227 40.5879 20.7227 41.9209C20.7227 43.2666 19.3008 44.0664 16.9521 44.0537C14.5781 44.0664 13.1309 43.2666 13.1309 41.9209C13.1309 40.5879 14.5781 39.8135 16.9521 39.8135ZM16.9521 40.7656C15.3018 40.7656 14.3242 41.1846 14.3369 41.9209C14.3242 42.6826 15.3018 43.1016 16.9521 43.1016C18.5898 43.1016 19.542 42.6826 19.542 41.9209C19.542 41.1846 18.5898 40.7656 16.9521 40.7656ZM31.7803 32.7041V37.3125H33.6084V38.3154H31.7803V44.0791H30.5869V32.7041H31.7803ZM29.5967 34.4814V35.4717H22.8555V34.4814H25.6611V32.8564H26.8672V34.4814H29.5967ZM26.2705 36.3096C27.8955 36.3096 29.0889 37.4014 29.1016 38.9502C29.0889 40.5117 27.8955 41.5908 26.2705 41.6035C24.6328 41.5908 23.4395 40.5117 23.4395 38.9502C23.4395 37.4014 24.6328 36.3096 26.2705 36.3096ZM26.2705 37.2998C25.3057 37.2998 24.582 37.9727 24.5947 38.9502C24.582 39.9404 25.3057 40.6006 26.2705 40.5879C27.2354 40.6006 27.9463 39.9404 27.9463 38.9502C27.9463 37.9727 27.2354 37.2998 26.2705 37.2998ZM43.6123 32.7041V44.0791H42.3936V32.7041H43.6123ZM40.2227 33.9229C40.2227 37.249 38.8008 40.1436 34.9033 42.0098L34.2686 41.0322C37.2964 39.5913 38.769 37.541 39.0039 34.8877H34.8145V33.9229H40.2227Z" fill="#A3A3A3"/>
</svg>
