<svg width="45" height="45" viewBox="0 0 45 45" fill="none" xmlns="http://www.w3.org/2000/svg">
<path d="M17 13H28" stroke="#A3A3A3" stroke-linecap="round"/>
<path d="M17 17H26" stroke="#A3A3A3" stroke-linecap="round"/>
<rect x="17.5" y="2.5" width="11" height="4" rx="1.5" stroke="#A3A3A3"/>
<path d="M28 4C32 4 34 6 34 10V20C34 24 32 26 28 26H18C14 26 12 24 12 20V10C12 6 14 4 18 4" stroke="#A3A3A3"/>
<path d="M16.6064 34.5195C16.6064 36.0176 17.6475 37.4014 19.3486 37.96L18.7012 38.9121C17.457 38.4741 16.5239 37.5854 16.0352 36.4619C15.5337 37.7378 14.5688 38.7344 13.2422 39.2295L12.5947 38.2646C14.3721 37.6299 15.4004 36.1191 15.4131 34.418V33.3008H16.6064V34.5195ZM21.6211 32.7041V35.5605H23.2715V36.5762H21.6211V39.5723H20.415V32.7041H21.6211ZM17.9521 39.8389C20.2881 39.8389 21.7227 40.6133 21.7227 41.9463C21.7227 43.292 20.2881 44.0664 17.9521 44.0537C15.5908 44.0664 14.1309 43.292 14.1309 41.9463C14.1309 40.6133 15.5908 39.8389 17.9521 39.8389ZM17.9521 40.791C16.3018 40.791 15.3242 41.2227 15.3369 41.9463C15.3242 42.6953 16.3018 43.1016 17.9521 43.1143C19.5898 43.1016 20.542 42.6953 20.542 41.9463C20.542 41.2227 19.5898 40.791 17.9521 40.791ZM32.8564 32.7041V35.4082H34.5068V36.4111H32.8564V39.1279H31.6504V32.7041H32.8564ZM29.4795 33.4531V34.4307H25.6201V37.5664C27.8354 37.5601 29.0859 37.4775 30.5078 37.1982L30.6475 38.1631C29.1113 38.4932 27.7656 38.5439 25.3281 38.5439H24.4268V33.4531H29.4795ZM32.8564 39.6865V43.9268H25.5947V39.6865H32.8564ZM26.7754 40.6514V42.9619H31.6631V40.6514H26.7754Z" fill="#A3A3A3"/>
</svg>
