<svg width="45" height="45" viewBox="0 0 45 45" fill="none" xmlns="http://www.w3.org/2000/svg">
<path d="M33.5 6C33.5 5.17157 32.8284 4.5 32 4.5H17C13.4101 4.5 10.5 7.41015 10.5 11V17C10.5 20.5899 13.4101 23.5 17 23.5H27C30.5899 23.5 33.5 20.5899 33.5 17V6Z" stroke="url(#paint0_linear_626_7263)"/>
<path d="M25.449 11.0574L25.4492 11.0575C25.6232 11.2348 25.7618 11.4458 25.8565 11.6787L26.3196 11.4903L25.8565 11.6787C25.9511 11.9116 26 12.1615 26 12.4142C26 12.6668 25.9511 12.9168 25.8565 13.1497L26.3196 13.338L25.8565 13.1497C25.7618 13.3825 25.6232 13.5935 25.4492 13.7708L25.4491 13.7709L22.3568 16.9224C22.1608 17.1221 21.839 17.1221 21.643 16.9224L18.5506 13.7709C18.1991 13.4126 18 12.9248 18 12.4142C18 11.9035 18.1991 11.4157 18.5506 11.0574C18.9018 10.6995 19.3761 10.5002 19.8686 10.5002C20.3611 10.5002 20.8354 10.6995 21.1866 11.0574L21.643 11.5226C21.737 11.6184 21.8656 11.6724 21.9999 11.6724C22.1341 11.6724 22.2627 11.6184 22.3568 11.5226L22.8132 11.0574L22.8132 11.0574C22.9872 10.88 23.1931 10.7399 23.4192 10.6444C23.6452 10.549 23.8871 10.5 24.1311 10.5C24.3752 10.5 24.6171 10.549 24.8431 10.6444C25.0691 10.7399 25.2751 10.88 25.449 11.0574Z" stroke="url(#paint1_linear_626_7263)" stroke-linecap="round" stroke-linejoin="round"/>
<path d="M14.6953 34.7861C14.6953 36.3223 15.7236 37.8203 17.4375 38.417L16.7773 39.3564C15.5332 38.8804 14.6064 37.9409 14.124 36.7539C13.6289 38.0742 12.6577 39.1152 11.3184 39.623L10.6709 38.6709C12.4355 38.0361 13.4893 36.4619 13.502 34.748V33.4023H14.6953V34.7861ZM20.167 32.7168V41.1973H18.9609V36.2969H16.5615V35.3066H18.9609V32.7168H20.167ZM20.4209 42.8604V43.8379H12.7402V40.2451H13.959V42.8604H20.4209ZM32.291 38.7979V39.7627H21.8936V38.7979H26.4893V37.7188H23.252V32.9961H31.0215V33.9482H24.4707V34.875H30.7295V35.7891H24.4707V36.792H31.0977V37.7188H27.6953V38.7979H32.291ZM30.9707 40.6768V44.0791H29.7393V41.6416H23.0742V40.6768H30.9707Z" fill="url(#paint2_linear_626_7263)"/>
<defs>
<linearGradient id="paint0_linear_626_7263" x1="34" y1="4" x2="6.43374" y2="12.6994" gradientUnits="userSpaceOnUse">
<stop stop-color="#D959F5"/>
<stop offset="1" stop-color="#3196F4"/>
</linearGradient>
<linearGradient id="paint1_linear_626_7263" x1="17.5" y1="10" x2="27.952" y2="13.0923" gradientUnits="userSpaceOnUse">
<stop stop-color="#D959F5"/>
<stop offset="1" stop-color="#3196F4"/>
</linearGradient>
<linearGradient id="paint2_linear_626_7263" x1="10" y1="32" x2="33.8791" y2="43.1105" gradientUnits="userSpaceOnUse">
<stop stop-color="#D959F5"/>
<stop offset="1" stop-color="#3196F4"/>
</linearGradient>
</defs>
</svg>
