<svg width="48" height="48" viewBox="0 0 48 48" fill="none" xmlns="http://www.w3.org/2000/svg">
<path d="M27.2416 24.0079C27.2416 23.8968 27.2236 23.794 27.1875 23.6996C27.1514 23.6052 27.0889 23.5135 27 23.4246L22.1666 18.5913C22.0055 18.4302 21.8111 18.3496 21.5833 18.3496C21.3555 18.3496 21.1611 18.4302 21 18.5913C20.8389 18.7524 20.7583 18.9496 20.7583 19.1829C20.7583 19.4163 20.8389 19.6135 21 19.7746L25.2333 24.0079L21 28.2413C20.8389 28.4024 20.7583 28.5968 20.7583 28.8246C20.7583 29.0524 20.8389 29.2468 21 29.4079C21.1611 29.5691 21.3583 29.6496 21.5916 29.6496C21.825 29.6496 22.0222 29.5691 22.1833 29.4079L27 24.5913C27.0889 24.5024 27.1514 24.4107 27.1875 24.3163C27.2236 24.2218 27.2416 24.1191 27.2416 24.0079Z" fill="#737373"/>
</svg>
