<svg width="48" height="48" viewBox="0 0 48 48" fill="none" xmlns="http://www.w3.org/2000/svg">
<path fill-rule="evenodd" clip-rule="evenodd" d="M28.7444 17.037L29.953 15.8284C30.734 15.0474 32.0004 15.0474 32.7814 15.8284C33.5624 16.6095 33.5624 17.8758 32.7814 18.6569L31.5728 19.8654L28.7444 17.037ZM28.0373 17.7441L16.0439 29.7375L15.8287 32.7811L18.8724 32.5659L30.8657 20.5725L28.0373 17.7441ZM15.0464 29.6669C15.0634 29.4267 15.1665 29.2006 15.3368 29.0303L29.2459 15.1213C30.4174 13.9497 32.3169 13.9497 33.4885 15.1213C34.6601 16.2929 34.6601 18.1924 33.4885 19.364L19.5795 33.273C19.4092 33.4433 19.1831 33.5464 18.9429 33.5634L15.8993 33.7786C15.2925 33.8215 14.7883 33.3173 14.8312 32.7106L15.0464 29.6669Z" fill="#404040"/>
</svg>
