<svg viewBox="0 0 48 48" fill="none" xmlns="http://www.w3.org/2000/svg">
<path d="M20.7584 24.0079C20.7584 23.8968 20.7764 23.794 20.8125 23.6996C20.8486 23.6052 20.9111 23.5135 21 23.4246L25.8334 18.5913C25.9945 18.4302 26.1889 18.3496 26.4167 18.3496C26.6445 18.3496 26.8389 18.4302 27 18.5913C27.1611 18.7524 27.2417 18.9496 27.2417 19.1829C27.2417 19.4163 27.1611 19.6135 27 19.7746L22.7667 24.0079L27 28.2413C27.1611 28.4024 27.2417 28.5968 27.2417 28.8246C27.2417 29.0524 27.1611 29.2468 27 29.4079C26.8389 29.5691 26.6417 29.6496 26.4084 29.6496C26.175 29.6496 25.9778 29.5691 25.8167 29.4079L21 24.5913C20.9111 24.5024 20.8486 24.4107 20.8125 24.3163C20.7764 24.2218 20.7584 24.1191 20.7584 24.0079Z" fill="currentColor"/>
</svg>
