<svg width="48" height="48" viewBox="0 0 48 48" fill="none" xmlns="http://www.w3.org/2000/svg">
<circle opacity="0.9" cx="24" cy="24" r="18" fill="#E5E5E5"/>
<path d="M24.0084 20.7589C23.8973 20.7589 23.7945 20.7769 23.7001 20.813C23.6056 20.8491 23.514 20.9116 23.4251 21.0005L18.5917 25.8339C18.4306 25.995 18.3501 26.1894 18.3501 26.4172C18.3501 26.645 18.4306 26.8394 18.5917 27.0005C18.7529 27.1616 18.9501 27.2422 19.1834 27.2422C19.4168 27.2422 19.614 27.1616 19.7751 27.0005L24.0084 22.7672L28.2418 27.0005C28.4029 27.1616 28.5973 27.2422 28.8251 27.2422C29.0529 27.2422 29.2473 27.1616 29.4084 27.0005C29.5695 26.8394 29.6501 26.6422 29.6501 26.4089C29.6501 26.1755 29.5695 25.9783 29.4084 25.8172L24.5917 21.0005C24.5029 20.9116 24.4112 20.8491 24.3167 20.813C24.2223 20.7769 24.1195 20.7589 24.0084 20.7589Z" fill="#A3A3A3"/>
</svg>
