<svg viewBox="0 0 50 52" fill="none" xmlns="http://www.w3.org/2000/svg">
<g filter="url(#filter0_d_1110_7685)">
<path fill-rule="evenodd" clip-rule="evenodd" d="M25 26C23.8954 26 23 25.1046 23 24C23 22.8954 23.8954 22 25 22C26.1046 22 27 22.8954 27 24C27 25.1046 26.1046 26 25 26ZM25 27C23.3431 27 22 25.6569 22 24C22 22.3431 23.3431 21 25 21C26.6568 21 28 22.3431 28 24C28 25.6569 26.6568 27 25 27ZM26.0196 13.5C26.4498 13.5 26.8318 13.7751 26.9681 14.1831L27.7726 16.5911C28.097 17.5623 29.1027 18.1316 30.1024 17.9099L32.4305 17.3938C32.8579 17.299 33.2972 17.4932 33.5147 17.8731L34.5396 19.6625C34.75 20.0299 34.7062 20.49 34.4303 20.8111L32.8104 22.6967C32.1665 23.4463 32.1665 24.5537 32.8104 25.3033L34.4303 27.1889C34.7062 27.51 34.75 27.9701 34.5396 28.3375L33.5147 30.1269C33.2972 30.5068 32.8579 30.701 32.4305 30.6062L30.1024 30.0901C29.1027 29.8684 28.097 30.4377 27.7726 31.4089L26.9681 33.8169C26.8318 34.2249 26.4498 34.5 26.0196 34.5H23.9803C23.5502 34.5 23.1682 34.2249 23.0319 33.8169L22.2274 31.4089C21.9029 30.4377 20.8973 29.8684 19.8975 30.0901L17.5695 30.6062C17.1421 30.701 16.7028 30.5068 16.4852 30.1269L15.4604 28.3375C15.25 27.9701 15.2937 27.51 15.5696 27.1889L17.1895 25.3033C17.8334 24.5537 17.8334 23.4463 17.1895 22.6967L15.5696 20.8111C15.2937 20.49 15.25 20.0299 15.4604 19.6625L16.4852 17.8731C16.7028 17.4932 17.1421 17.299 17.5695 17.3938L19.8975 17.9099C20.8973 18.1316 21.9029 17.5623 22.2274 16.5911L23.0319 14.1831C23.1682 13.7751 23.5502 13.5 23.9803 13.5H25H26.0196ZM27.9166 13.8663C27.6439 13.0502 26.88 12.5 26.0196 12.5H25H23.9803C23.12 12.5 22.356 13.0502 22.0834 13.8663L21.2789 16.2742C21.1167 16.7598 20.6139 17.0445 20.114 16.9336L17.7859 16.4175C16.9312 16.228 16.0526 16.6164 15.6175 17.3761L14.5926 19.1655C14.1718 19.9003 14.2593 20.8205 14.8111 21.4628L16.431 23.3484C16.753 23.7231 16.753 24.2769 16.431 24.6516L14.8111 26.5372C14.2593 27.1795 14.1718 28.0997 14.5926 28.8345L15.6175 30.6239C16.0526 31.3836 16.9312 31.772 17.7859 31.5825L20.114 31.0664C20.6139 30.9555 21.1167 31.2402 21.2789 31.7258L22.0834 34.1337C22.356 34.9498 23.12 35.5 23.9803 35.5H26.0196C26.88 35.5 27.6439 34.9498 27.9166 34.1337L28.721 31.7258C28.8833 31.2402 29.3861 30.9555 29.886 31.0664L32.214 31.5825C33.0688 31.772 33.9474 31.3836 34.3825 30.6239L35.4073 28.8345C35.8282 28.0997 35.7407 27.1795 35.1889 26.5372L33.569 24.6516C33.247 24.2769 33.247 23.7231 33.569 23.3484L35.1889 21.4628C35.7407 20.8205 35.8282 19.9003 35.4073 19.1655L34.3825 17.3761C33.9474 16.6164 33.0688 16.228 32.214 16.4175L29.886 16.9336C29.3861 17.0445 28.8833 16.7598 28.721 16.2742L27.9166 13.8663Z" fill="currentColor"/>
</g>
<defs>
<filter id="filter0_d_1110_7685" x="-13" y="-12" width="76" height="76" filterUnits="userSpaceOnUse" color-interpolation-filters="sRGB">
<feFlood flood-opacity="0" result="BackgroundImageFix"/>
<feColorMatrix in="SourceAlpha" type="matrix" values="0 0 0 0 0 0 0 0 0 0 0 0 0 0 0 0 0 0 127 0" result="hardAlpha"/>
<feOffset dy="2"/>
<feGaussianBlur stdDeviation="7"/>
<feComposite in2="hardAlpha" operator="out"/>
<feColorMatrix type="matrix" values="0 0 0 0 0 0 0 0 0 0 0 0 0 0 0 0 0 0 0.03 0"/>
<feBlend mode="normal" in2="BackgroundImageFix" result="effect1_dropShadow_1110_7685"/>
<feBlend mode="normal" in="SourceGraphic" in2="effect1_dropShadow_1110_7685" result="shape"/>
</filter>
</defs>
</svg>
