<svg viewBox="0 0 36 36" fill="none" xmlns="http://www.w3.org/2000/svg">
<rect width="36" height="36" rx="16" fill="#E5E5E5"/>
<path fill-rule="evenodd" clip-rule="evenodd" d="M18.0001 16.7996C18.9549 16.7996 19.8706 16.4203 20.5457 15.7452C21.2208 15.0701 21.6001 14.1544 21.6001 13.1996C21.6001 12.2448 21.2208 11.3292 20.5457 10.654C19.8706 9.97889 18.9549 9.59961 18.0001 9.59961C17.0453 9.59961 16.1296 9.97889 15.4545 10.654C14.7794 11.3292 14.4001 12.2448 14.4001 13.1996C14.4001 14.1544 14.7794 15.0701 15.4545 15.7452C16.1296 16.4203 17.0453 16.7996 18.0001 16.7996ZM9.6001 27.5996C9.6001 26.4965 9.81737 25.4042 10.2395 24.3851C10.6616 23.3659 11.2804 22.4399 12.0604 21.6599C12.8404 20.8799 13.7664 20.2612 14.7856 19.839C15.8047 19.4169 16.897 19.1996 18.0001 19.1996C19.1032 19.1996 20.1955 19.4169 21.2146 19.839C22.2338 20.2612 23.1598 20.8799 23.9398 21.6599C24.7198 22.4399 25.3385 23.3659 25.7607 24.3851C26.1828 25.4042 26.4001 26.4965 26.4001 27.5996H9.6001Z" fill="white"/>
</svg>
