<svg width="48" height="48" viewBox="0 0 48 48" fill="none" xmlns="http://www.w3.org/2000/svg">
<circle opacity="0.9" cx="24" cy="24" r="18" fill="url(#paint0_linear_725_7276)"/>
<path d="M24.0084 20.7583C23.8973 20.7583 23.7945 20.7764 23.7001 20.8125C23.6056 20.8486 23.514 20.9111 23.4251 21L18.5917 25.8333C18.4306 25.9944 18.3501 26.1889 18.3501 26.4167C18.3501 26.6445 18.4306 26.8389 18.5917 27C18.7529 27.1611 18.9501 27.2417 19.1834 27.2417C19.4168 27.2417 19.614 27.1611 19.7751 27L24.0084 22.7666L28.2418 27C28.4029 27.1611 28.5973 27.2417 28.8251 27.2417C29.0529 27.2417 29.2473 27.1611 29.4084 27C29.5695 26.8389 29.6501 26.6417 29.6501 26.4083C29.6501 26.175 29.5695 25.9778 29.4084 25.8167L24.5917 21C24.5029 20.9111 24.4112 20.8486 24.3167 20.8125C24.2223 20.7764 24.1195 20.7583 24.0084 20.7583Z" fill="white"/>
<defs>
<linearGradient id="paint0_linear_725_7276" x1="6" y1="6" x2="48.5263" y2="17.1838" gradientUnits="userSpaceOnUse">
<stop stop-color="#D959F5"/>
<stop offset="1" stop-color="#3196F4"/>
</linearGradient>
</defs>
</svg>
