<svg viewBox="0 0 200 188" fill="none" xmlns="http://www.w3.org/2000/svg">
<path d="M12.7341 14.1003C2.83271 25.7393 -1.40347 44.3617 0.408391 59.2494C3.82795 87.669 18.7311 122.535 43.0764 139.162C61.3991 151.671 83.856 136.655 98.9123 124.658C110.141 115.73 119.047 105.166 128.208 94.2942C130.352 91.7618 135.328 85.9807 138.059 88.462C140.611 90.7642 135.124 98.2848 133.593 100.254C130.224 104.654 126.626 108.875 122.875 112.968C118.792 117.419 114.709 122.074 110.166 126.065C101.617 133.534 92.4304 140.236 82.9118 146.401C75.3326 151.313 62.3178 156.096 59.6638 165.816C57.6988 173.081 63.7469 183.185 70.0246 186.076C77.8845 189.683 87.3521 186.025 94.9823 183.16C148.062 163.31 205.939 113.633 199.509 50.7056C196.625 21.9023 181.467 -0.352517 150.512 0.440469C112.284 1.566 93.3236 59.2238 79.875 58.8145C69.7184 58.5075 75.7919 12.4376 51.4722 4.73794C36.8497 0.107927 20.4919 4.94259 12.7341 14.0747V14.1003Z" fill="url(#paint0_linear_530_18980)"/>
<defs>
<linearGradient id="paint0_linear_530_18980" x1="169.84" y1="187.611" x2="-35.6514" y2="-36.6967" gradientUnits="userSpaceOnUse">
<stop stop-color="#D959F5"/>
<stop offset="1" stop-color="#3196F4"/>
</linearGradient>
</defs>
</svg>
